<?xml version="1.0" standalone="no"?>
<!DOCTYPE svg PUBLIC "-//W3C//DTD SVG 20010904//EN"
 "http://www.w3.org/TR/2001/REC-SVG-20010904/DTD/svg10.dtd">
<svg version="1.0" xmlns="http://www.w3.org/2000/svg"
 width="500.000000pt" height="500.000000pt" viewBox="0 0 500.000000 500.000000"
 preserveAspectRatio="xMidYMid meet">

<g transform="translate(0.000000,500.000000) scale(0.100000,-0.100000)"
fill="#ffffff" stroke="none">
<path d="M2341 2785 c-56 -85 -104 -162 -107 -170 -10 -24 23 -65 51 -65 18 0
32 11 51 40 15 22 28 40 30 40 1 0 13 -17 25 -37 13 -21 28 -41 33 -45 6 -4
44 -8 84 -8 89 0 96 11 53 74 -17 24 -31 47 -31 51 0 3 19 5 42 3 40 -3 45 -7
81 -60 28 -43 44 -58 61 -58 31 0 60 33 53 60 -3 12 -52 91 -109 176 l-103
154 -56 0 -56 0 -102 -155z m187 21 l23 -34 -37 -56 c-35 -54 -39 -56 -80 -56
-24 0 -44 3 -44 6 0 10 104 174 110 174 3 0 15 -15 28 -34z"/>
<path d="M2495 2430 c-8 -13 3 -30 20 -30 14 0 27 24 18 34 -10 9 -31 7 -38
-4z"/>
<path d="M2750 2325 c0 -96 3 -115 15 -115 9 0 15 9 15 24 0 39 19 41 49 6 16
-20 34 -31 44 -29 16 4 14 9 -13 47 l-32 42 33 38 c28 32 30 37 15 40 -11 2
-34 -12 -57 -34 l-39 -38 0 67 c0 53 -3 67 -15 67 -12 0 -15 -19 -15 -115z"/>
<path d="M3210 2400 c0 -38 -1 -39 -24 -29 -77 36 -139 -77 -79 -143 18 -21
73 -24 91 -6 9 9 12 9 12 0 0 -7 9 -12 20 -12 19 0 20 7 20 115 0 108 -1 115
-20 115 -17 0 -20 -7 -20 -40z m-19 -60 c22 -12 27 -68 7 -88 -27 -27 -78 -1
-78 39 0 17 32 59 46 59 3 0 14 -5 25 -10z"/>
<path d="M1841 2413 c-12 -23 -81 -192 -81 -198 0 -3 9 -5 20 -5 13 0 24 10
30 26 9 23 14 25 62 22 44 -2 55 -7 63 -25 6 -14 18 -23 33 -23 22 0 22 1 6
38 -8 20 -29 70 -46 110 -25 61 -34 72 -54 72 -13 0 -27 -8 -33 -17z m63 -100
c7 -21 4 -23 -33 -23 -45 0 -44 -6 -10 78 l11 27 13 -30 c7 -16 16 -40 19 -52z"/>
<path d="M2010 2295 c0 -78 2 -85 20 -85 18 0 20 7 20 60 0 48 4 61 19 70 32
16 51 -12 51 -76 0 -41 4 -54 15 -54 11 0 15 13 15 54 0 36 5 60 16 70 33 34
54 8 54 -66 0 -51 2 -58 20 -58 18 0 20 7 20 63 0 95 -39 132 -97 92 -18 -13
-22 -13 -33 0 -15 18 -51 20 -67 4 -8 -8 -13 -8 -17 0 -4 6 -14 11 -22 11 -11
0 -14 -18 -14 -85z"/>
<path d="M2300 2265 c0 -96 3 -115 15 -115 13 0 19 22 18 67 -1 9 5 10 17 3
30 -16 69 -11 91 11 31 31 24 105 -14 133 -23 17 -32 19 -57 9 -18 -7 -32 -7
-36 -2 -3 5 -12 9 -20 9 -11 0 -14 -22 -14 -115z m95 79 c27 -11 38 -53 20
-80 -19 -30 -49 -31 -69 -2 -21 30 -20 44 4 68 22 22 22 22 45 14z"/>
<path d="M2500 2295 c0 -69 3 -85 15 -85 12 0 15 16 15 85 0 69 -3 85 -15 85
-12 0 -15 -16 -15 -85z"/>
<path d="M2597 2360 c-14 -11 -28 -33 -32 -49 -7 -33 15 -85 40 -95 43 -16
105 1 105 29 0 17 -26 20 -35 5 -9 -15 -42 -12 -59 6 -22 22 -20 60 5 77 20
15 59 12 59 -4 0 -5 7 -6 15 -3 20 8 19 24 -2 40 -26 20 -67 17 -96 -6z"/>
<path d="M2925 2355 c-34 -33 -34 -93 -2 -123 25 -24 75 -29 108 -11 30 16 12
30 -30 23 -29 -5 -42 -2 -56 12 -18 19 -17 19 48 22 64 3 67 4 67 28 0 35 -42
74 -80 74 -19 0 -40 -9 -55 -25z m90 -25 c18 -20 17 -20 -35 -20 -52 0 -53 0
-35 20 10 11 26 20 35 20 9 0 25 -9 35 -20z"/>
</g>
</svg>
